<svg xmlns="http://www.w3.org/2000/svg" version="1.1" xmlns:xlink="http://www.w3.org/1999/xlink" xmlns:svgjs="http://svgjs.dev/svgjs" width="1440" height="560" preserveAspectRatio="none" viewBox="0 0 1440 560"><g mask="url(&quot;#SvgjsMask1052&quot;)" fill="none"><rect width="1440" height="560" x="0" y="0" fill="rgba(24, 25, 26, 1)"></rect><path d="M0,583.008C110.976,583.512,216.048,541.408,310.553,483.23C406.448,424.197,484.039,343.804,543.706,248.302C610.128,141.99,693.115,26.967,672.912,-96.75C652.749,-220.221,534.377,-298.922,440.786,-381.943C357.803,-455.554,269.677,-525.387,161.589,-550.322C56.997,-574.45,-50.094,-551.49,-152.324,-518.768C-252.552,-486.687,-348.452,-441.093,-420.197,-364.103C-493.579,-285.356,-551.244,-187.835,-560.634,-80.607C-569.805,24.114,-513.973,119.16,-470.916,215.06C-427.579,311.584,-392.121,415.276,-308.747,480.42C-221.525,548.571,-110.689,582.506,0,583.008" fill="#101011"></path><path d="M1440 952.1800000000001C1513.23 953.424 1575.427 906.1030000000001 1638.501 868.874 1704.016 830.204 1780.866 799.262 1814.6019999999999 731.075 1848.621 662.315 1843.164 578.168 1818.223 505.62 1795.372 439.152 1726.824 404.36699999999996 1683.308 349.172 1636.939 290.357 1622.331 202.086 1554.273 170.82299999999998 1484.91 138.95999999999998 1399.91 155.329 1330.509 187.108 1265.446 216.901 1227.048 281.236 1185.66 339.613 1147.982 392.757 1109.161 446.623 1100.723 511.219 1092.343 575.37 1114.1979999999999 637.713 1138.91 697.5029999999999 1164.425 759.237 1194.786 819.063 1245.787 862.202 1301.387 909.232 1367.188 950.943 1440 952.1800000000001" fill="#202223"></path></g><defs><mask id="SvgjsMask1052"><rect width="1440" height="560" fill="#ffffff"></rect></mask></defs></svg>