<svg xmlns="http://www.w3.org/2000/svg" version="1.1" xmlns:xlink="http://www.w3.org/1999/xlink" xmlns:svgjs="http://svgjs.dev/svgjs" width="1280" height="720" preserveAspectRatio="none" viewBox="0 0 1280 720"><g mask="url(&quot;#SvgjsMask1113&quot;)" fill="none"><rect width="1280" height="720" x="0" y="0" fill="rgba(24, 25, 26, 1)"></rect><path d="M0,456.879C84.211,460.529,128.654,355.939,197.442,307.226C262.172,261.387,360.264,251.716,392.224,179.123C424.187,106.524,356.099,28.251,355.187,-51.068C354.07,-148.154,436.736,-251.77,386.313,-334.742C337.396,-415.236,219.521,-418.918,125.817,-428.495C43.611,-436.897,-33.805,-408.425,-113.282,-385.801C-193.467,-362.975,-283.66,-355.99,-341.114,-295.577C-399.382,-234.308,-426.036,-145.21,-422.423,-60.735C-419.068,17.709,-365.921,81.931,-322.179,147.134C-284.786,202.872,-235.127,244.059,-186.742,290.576C-125.412,349.539,-84.996,453.195,0,456.879" fill="#101011"></path><path d="M1280 1206.2440000000001C1387.83 1235.4479999999999 1509.648 1283.4940000000001 1607.5230000000001 1229.636 1705.354 1175.8020000000001 1742.344 1050.286 1762.885 940.5260000000001 1780.853 844.514 1733.539 753.3389999999999 1714.591 657.515 1696.828 567.683 1700.076 474.762 1655.021 395.042 1603.337 303.592 1542.465 198.73000000000002 1440.664 172.827 1338.987 146.95500000000004 1243.883 226.39 1146.598 265.674 1059.423 300.876 974.2470000000001 332.918 900.332 391.015 812.434 460.103 706.798 525.347 678.59 633.53 649.764 744.083 678.478 873.543 751.637 961.296 821.394 1044.967 950.755 1032.712 1049.586 1078.53 1130.902 1116.228 1193.488 1182.814 1280 1206.2440000000001" fill="#202223"></path></g><defs><mask id="SvgjsMask1113"><rect width="1280" height="720" fill="#ffffff"></rect></mask></defs></svg>